<?xml version="1.0" standalone="no"?>
<!DOCTYPE svg PUBLIC "-//W3C//DTD SVG 20010904//EN"
 "http://www.w3.org/TR/2001/REC-SVG-20010904/DTD/svg10.dtd">
<svg version="1.0" xmlns="http://www.w3.org/2000/svg"
 width="200.000000pt" height="200.000000pt" viewBox="0 0 200.000000 200.000000"
 preserveAspectRatio="xMidYMid meet">
<metadata>
Created by potrace 1.14, written by Peter Selinger 2001-2017
</metadata>
<g transform="translate(0.000000,200.000000) scale(0.100000,-0.100000)"
fill="#000000" stroke="none">
<path d="M1843 1850 c-61 -27 -128 -75 -188 -134 -57 -56 -135 -165 -135 -188
0 -8 26 -40 57 -71 71 -70 69 -71 249 108 180 179 191 364 17 285z"/>
<path d="M595 1739 c-99 -25 -149 -44 -224 -86 -77 -43 -183 -147 -229 -225
-32 -54 -79 -176 -88 -225 -2 -13 -6 -35 -9 -50 -40 -211 21 -463 161 -659 99
-140 275 -260 474 -324 91 -29 136 -35 250 -33 327 4 596 190 689 475 55 171
47 319 -20 384 -50 48 -131 25 -154 -44 -46 -136 -236 -181 -363 -86 -110 83
-115 155 -24 338 64 128 82 190 76 259 -12 124 -93 214 -234 258 -123 38 -206
43 -305 18z m-53 -198 c75 -29 115 -115 89 -194 -48 -143 -268 -124 -295 26
-6 33 11 96 32 121 44 50 116 69 174 47z m-179 -419 c131 -76 74 -282 -78
-282 -42 0 -93 24 -115 54 -102 140 46 314 193 228z m1046 -424 c64 -63 61
-168 -7 -223 -100 -80 -235 -26 -249 99 -16 141 155 223 256 124z m-834 16
c124 -81 64 -280 -85 -278 -63 1 -105 28 -134 86 -20 41 -23 54 -15 89 12 53
40 89 87 112 43 20 108 17 147 -9z m403 -200 c92 -54 94 -193 4 -254 -75 -52
-179 -24 -222 60 -67 131 90 270 218 194z"/>
<path d="M1446 1441 l-37 -50 43 -40 c48 -45 64 -48 114 -25 63 30 62 38 -7
104 -35 33 -67 60 -71 60 -3 0 -23 -22 -42 -49z"/>
<path d="M1265 1351 c-96 -45 -147 -130 -151 -257 -3 -71 14 -175 30 -191 3
-3 30 17 61 45 30 28 86 65 123 83 120 56 129 62 142 83 22 36 28 84 16 129
-14 54 -32 79 -76 106 -43 26 -92 27 -145 2z"/>
</g>
</svg>
